<?xml version="1.0" encoding="iso-8859-1"?>
<!-- Generator: Adobe Illustrator 19.0.0, SVG Export Plug-In . SVG Version: 6.00 Build 0)  -->
<svg fill="#00BF81" version="1.1" id="Layer_1" xmlns="http://www.w3.org/2000/svg" xmlns:xlink="http://www.w3.org/1999/xlink" x="0px" y="0px"
	 viewBox="0 0 512 512" style="enable-background:new 0 0 512 512;" xml:space="preserve">
<g>
	<g>
		<g>
			<path d="M40.38,204.493c0.768,0.213,1.536,0.316,2.295,0.316c3.738,0,7.168-2.475,8.209-6.255l7.748-27.887h368.034
				c4.719,0,8.533-3.823,8.533-8.533s-3.814-8.533-8.533-8.533H63.377l30.02-108.083c4.233-9.557,9.455-11.383,17.536-11.383H128
				c4.71,0,8.533-3.823,8.533-8.533c0-4.71-3.823-8.533-8.533-8.533h-17.067c-10.283,0-24.926,2.304-33.442,22.246
				c-0.154,0.35-0.282,0.708-0.375,1.067L34.449,193.988C33.186,198.528,35.84,203.23,40.38,204.493z"/>
			<path d="M179.2,51.2h153.6c14.114,0,25.6-11.486,25.6-25.6S346.914,0,332.8,0H179.2c-14.114,0-25.6,11.486-25.6,25.6
				S165.086,51.2,179.2,51.2z M179.2,17.067h153.6c4.71,0,8.533,3.831,8.533,8.533c0,4.702-3.823,8.533-8.533,8.533H179.2
				c-4.702,0-8.533-3.831-8.533-8.533C170.667,20.898,174.498,17.067,179.2,17.067z"/>
			<path d="M64.708,298.667c0,4.71,3.823,8.533,8.533,8.533h41.216l4.267,51.2H81.425c-4.71,0-8.533,3.823-8.533,8.533
				s3.823,8.533,8.533,8.533h38.724l4.267,51.2H90.308c-4.71,0-8.533,3.823-8.533,8.533s3.823,8.533,8.533,8.533h35.533
				l2.185,26.308c0.375,4.454,4.104,7.825,8.499,7.825c0.239,0,0.478,0,0.717-0.026c4.693-0.393,8.192-4.514,7.799-9.216
				l-2.082-24.892H204.8v25.6c0,4.719,3.823,8.533,8.533,8.533c4.71,0,8.533-3.814,8.533-8.533v-25.6h68.267v25.6
				c0,4.719,3.814,8.533,8.533,8.533s8.533-3.814,8.533-8.533v-25.6h61.841l-2.074,24.892c-0.393,4.702,3.089,8.823,7.791,9.216
				c0.239,0.026,0.486,0.026,0.717,0.026c4.395,0,8.124-3.371,8.491-7.825l2.193-26.308h35.883c4.719,0,8.533-3.823,8.533-8.533
				s-3.814-8.533-8.533-8.533h-34.458l4.267-51.2h38.724c4.719,0,8.533-3.823,8.533-8.533s-3.814-8.533-8.533-8.533h-37.308
				l4.267-51.2h42.291c4.719,0,8.533-3.823,8.533-8.533s-3.814-8.533-8.533-8.533h-40.866l2.074-24.892
				c0.393-4.693-3.089-8.815-7.791-9.207c-4.83-0.393-8.823,3.106-9.208,7.791l-2.193,26.308H307.2v-25.6
				c0-4.71-3.814-8.533-8.533-8.533s-8.533,3.823-8.533,8.533v25.6h-68.267v-25.6c0-4.71-3.823-8.533-8.533-8.533
				c-4.71,0-8.533,3.823-8.533,8.533v25.6h-74.641l-2.185-26.308c-0.393-4.693-4.531-8.192-9.216-7.791
				c-4.693,0.393-8.183,4.514-7.799,9.207l2.082,24.892H73.242C68.531,290.133,64.708,293.956,64.708,298.667z M307.2,307.2h73.216
				l-4.267,51.2H307.2V307.2z M307.2,375.467h67.533l-4.267,51.2H307.2V375.467z M221.867,307.2h68.267v51.2h-68.267V307.2z
				 M221.867,375.467h68.267v51.2h-68.267V375.467z M204.8,426.667h-63.258l-4.267-51.2H204.8V426.667z M204.8,307.2v51.2h-68.949
				l-4.267-51.2H204.8z"/>
			<path d="M503.467,153.6h-37.129L434.893,40.38c-0.102-0.358-0.23-0.717-0.375-1.067c-8.525-19.942-23.177-22.246-33.451-22.246
				H384c-4.719,0-8.533,3.823-8.533,8.533c0,4.71,3.814,8.533,8.533,8.533h17.067c8.081,0,13.312,1.826,17.536,11.383
				l42.505,153.037c1.05,3.78,4.489,6.255,8.218,6.255c0.759,0,1.527-0.102,2.295-0.316c4.54-1.263,7.194-5.965,5.939-10.505
				l-6.477-23.322h23.851v25.6c0,4.719,3.814,8.533,8.533,8.533s8.533-3.814,8.533-8.533v-34.133
				C512,157.423,508.186,153.6,503.467,153.6z"/>
			<path d="M486.4,221.867H17.067v-51.2h4.804c4.71,0,8.533-3.814,8.533-8.533c0-4.71-3.823-8.533-8.533-8.533H8.533
				c-4.71,0-8.533,3.823-8.533,8.533V230.4c0,4.71,3.823,8.533,8.533,8.533h468.028L443.819,468.13
				c-0.06,0.401-0.085,0.802-0.085,1.203c0,14.123-11.486,25.6-25.6,25.6H93.867c-14.114,0-25.6-11.477-25.6-25.6
				c0-0.393-0.026-0.794-0.085-1.186l-28.8-204.8c-0.657-4.668-5.009-7.91-9.634-7.262c-4.668,0.657-7.919,4.975-7.262,9.643
				l28.723,204.237C51.541,493.201,70.554,512,93.867,512h324.267c23.322,0,42.317-18.79,42.658-42.027l34.057-238.362
				c0.35-2.458-0.384-4.932-1.997-6.801C491.23,222.942,488.875,221.867,486.4,221.867z"/>
		</g>
	</g>
</g>
<g>
</g>
<g>
</g>
<g>
</g>
<g>
</g>
<g>
</g>
<g>
</g>
<g>
</g>
<g>
</g>
<g>
</g>
<g>
</g>
<g>
</g>
<g>
</g>
<g>
</g>
<g>
</g>
<g>
</g>
</svg>
